
      <svg data-logo="logo" xmlns="http://www.w3.org/2000/svg" viewBox="0 0 290 42">
        <g id="logogram" transform="translate(0, 1) rotate(0) "><path d="M0 20C0 12.5231 0 8.78461 1.60769 6C2.66091 4.17577 4.17577 2.66091 6 1.60769C8.78461 0 12.5231 0 20 0C27.4769 0 31.2154 0 34 1.60769C35.8242 2.66091 37.3391 4.17577 38.3923 6C40 8.78461 40 12.5231 40 20C40 27.4769 40 31.2154 38.3923 34C37.3391 35.8242 35.8242 37.3391 34 38.3923C31.2154 40 27.4769 40 20 40C12.5231 40 8.78461 40 6 38.3923C4.17577 37.3391 2.66091 35.8242 1.60769 34C0 31.2154 0 27.4769 0 20Z" fill="#2242E2"/><path fill-rule="evenodd" clip-rule="evenodd" d="M28.0441 7.60927C28.8868 6.80331 30.2152 6.79965 31.0622 7.58229L31.1425 7.66005L31.4164 7.94729C34.1911 10.9318 35.2251 14.4098 34.9599 17.8065C34.6908 21.2511 33.1012 24.4994 30.8836 27.0664C28.6673 29.6316 25.7084 31.6519 22.51 32.5287C19.2714 33.4164 15.7294 33.1334 12.6547 30.9629C10.0469 29.1218 9.05406 26.1465 8.98661 23.2561C7.52323 22.5384 5.98346 21.6463 4.36789 20.5615L3.941 20.2716L3.85006 20.206C2.93285 19.5053 2.72313 18.2084 3.39161 17.2564C4.06029 16.3043 5.36233 16.046 6.34665 16.6512L6.44134 16.7126L6.83024 16.9771C7.79805 17.6269 8.72153 18.1903 9.59966 18.6767C10.1661 16.6889 11.1047 14.7802 12.3413 13.207C14.1938 10.8501 16.9713 8.96525 20.374 9.24647C23.439 9.49995 25.7036 11.081 26.8725 13.3122C28.0044 15.4728 28.0211 18.0719 27.0319 20.307C26.0234 22.5857 23.976 24.484 21.0309 25.2662C18.9114 25.8291 16.4284 25.7905 13.6267 25.0367V25.0377C12.5115 24.7375 11.3427 24.323 10.1212 23.7846C9.8472 23.6638 9.60873 23.8483 10.1212 24.1686C11.5636 25.1924 13.5956 26.0505 14.1836 26.3385C14.4615 26.788 14.8061 27.1568 15.2011 27.4356C17.0188 28.7188 19.1451 28.9539 21.3396 28.3523C23.5743 27.7397 25.8141 26.2625 27.5514 24.2516C29.2873 22.2423 30.4065 19.8348 30.5909 17.4727C30.765 15.2439 30.1218 12.9543 28.1842 10.8736L27.9927 10.6731L27.9162 10.5906C27.1538 9.72748 27.2018 8.41516 28.0441 7.60927ZM20.0092 13.5651C18.6033 13.4489 17.1196 14.189 15.8013 15.8662C14.7973 17.1436 14.0376 18.8033 13.6503 20.5112C16.4093 21.4544 18.4655 21.4608 19.8942 21.0814C21.5481 20.6422 22.5399 19.6477 23.0172 18.5693C23.5137 17.4472 23.4628 16.2245 22.9813 15.3055C22.5369 14.4571 21.6422 13.7002 20.0092 13.5651Z" fill="#ffffff"/></g>
        <g id="logotype" transform="translate(46, 7.5)"><path fill="#2242e2" d="M13.52 27L8.31 27L8.31 1.54L18.24 1.54Q21.14 1.54 23.18 2.56Q25.21 3.59 26.28 5.45Q27.35 7.31 27.35 9.82L27.35 9.82Q27.35 12.34 26.26 14.16Q25.17 15.98 23.12 16.94Q21.06 17.91 18.12 17.91L18.12 17.91L11.38 17.91L11.38 13.69L17.28 13.69Q18.89 13.69 19.91 13.25Q20.94 12.82 21.45 11.95Q21.96 11.09 21.96 9.82L21.96 9.82Q21.96 8.53 21.45 7.65Q20.94 6.77 19.90 6.30Q18.87 5.84 17.26 5.84L17.26 5.84L13.52 5.84L13.52 27ZM28.25 27L22.47 27L16.27 15.41L21.93 15.41L28.25 27ZM37.53 27.38L37.53 27.38Q34.61 27.38 32.49 26.18Q30.37 24.98 29.23 22.78Q28.10 20.57 28.10 17.55L28.10 17.55Q28.10 14.59 29.22 12.37Q30.35 10.15 32.42 8.90Q34.49 7.65 37.27 7.65L37.27 7.65Q39.15 7.65 40.78 8.25Q42.40 8.85 43.63 10.06Q44.86 11.26 45.55 13.07Q46.24 14.88 46.24 17.34L46.24 17.34L46.24 18.78L30.20 18.78L30.20 15.57L43.73 15.57L41.34 16.42Q41.34 14.93 40.89 13.83Q40.43 12.73 39.54 12.12Q38.64 11.52 37.31 11.52L37.31 11.52Q35.99 11.52 35.06 12.13Q34.13 12.75 33.65 13.80Q33.17 14.85 33.17 16.20L33.17 16.20L33.17 18.47Q33.17 20.13 33.73 21.26Q34.28 22.39 35.28 22.95Q36.28 23.51 37.61 23.51L37.61 23.51Q38.52 23.51 39.25 23.26Q39.99 23.00 40.51 22.50Q41.03 21.99 41.31 21.26L41.31 21.26L45.95 22.13Q45.49 23.70 44.35 24.89Q43.20 26.08 41.49 26.73Q39.77 27.38 37.53 27.38ZM55.06 27.38L55.06 27.38Q52.75 27.38 50.98 26.72Q49.20 26.06 48.07 24.80Q46.94 23.55 46.62 21.77L46.62 21.77L51.39 20.95Q51.76 22.28 52.70 22.95Q53.64 23.62 55.21 23.62L55.21 23.62Q56.67 23.62 57.52 23.06Q58.38 22.51 58.38 21.65L58.38 21.65Q58.38 20.90 57.77 20.42Q57.16 19.94 55.92 19.69L55.92 19.69L52.62 19.00Q49.85 18.44 48.48 17.08Q47.11 15.72 47.11 13.58L47.11 13.58Q47.11 11.74 48.12 10.41Q49.13 9.09 50.93 8.37Q52.72 7.65 55.15 7.65L55.15 7.65Q57.40 7.65 59.06 8.28Q60.72 8.90 61.74 10.05Q62.77 11.19 63.11 12.75L63.11 12.75L58.56 13.55Q58.27 12.58 57.44 11.95Q56.62 11.33 55.21 11.33L55.21 11.33Q53.95 11.33 53.10 11.86Q52.24 12.39 52.24 13.26L52.24 13.26Q52.24 13.99 52.80 14.49Q53.35 14.99 54.70 15.26L54.70 15.26L58.14 15.94Q60.91 16.51 62.26 17.78Q63.61 19.05 63.61 21.10L63.61 21.10Q63.61 22.98 62.51 24.39Q61.42 25.80 59.50 26.59Q57.57 27.38 55.06 27.38ZM71.38 27.24L71.38 27.24Q69.40 27.24 67.91 26.38Q66.42 25.51 65.61 23.90Q64.80 22.28 64.80 20.04L64.80 20.04L64.80 7.89L69.93 7.89L69.93 19.16Q69.93 20.93 70.85 21.94Q71.77 22.95 73.38 22.95L73.38 22.95Q74.47 22.95 75.31 22.48Q76.15 22.01 76.62 21.11Q77.09 20.22 77.09 18.95L77.09 18.95L77.09 7.89L82.21 7.89L82.21 27L77.38 27L77.31 22.23L77.60 22.23Q76.85 24.64 75.30 25.94Q73.76 27.24 71.38 27.24ZM89.44 27L84.31 27L84.31 7.89L89.07 7.89L89.32 12.64L88.95 12.64Q89.39 10.88 90.25 9.77Q91.12 8.66 92.28 8.13Q93.44 7.60 94.72 7.60L94.72 7.60Q96.79 7.60 98.05 8.91Q99.32 10.22 99.92 12.95L99.92 12.95L99.32 12.95Q99.75 11.12 100.71 9.94Q101.68 8.75 103.00 8.18Q104.33 7.60 105.78 7.60L105.78 7.60Q107.54 7.60 108.92 8.37Q110.29 9.14 111.09 10.59Q111.88 12.03 111.88 14.11L111.88 14.11L111.88 27L106.75 27L106.75 15.09Q106.75 13.46 105.87 12.68Q104.99 11.89 103.71 11.89L103.71 11.89Q102.75 11.89 102.05 12.31Q101.34 12.73 100.95 13.48Q100.57 14.23 100.57 15.24L100.57 15.24L100.57 27L95.61 27L95.61 14.95Q95.61 13.55 94.78 12.72Q93.95 11.89 92.64 11.89L92.64 11.89Q91.73 11.89 91.01 12.30Q90.28 12.71 89.86 13.51Q89.44 14.30 89.44 15.45L89.44 15.45L89.44 27ZM122.61 27.38L122.61 27.38Q119.69 27.38 117.57 26.18Q115.45 24.98 114.31 22.78Q113.18 20.57 113.18 17.55L113.18 17.55Q113.18 14.59 114.31 12.37Q115.43 10.15 117.50 8.90Q119.57 7.65 122.35 7.65L122.35 7.65Q124.23 7.65 125.86 8.25Q127.48 8.85 128.71 10.06Q129.94 11.26 130.63 13.07Q131.33 14.88 131.33 17.34L131.33 17.34L131.33 18.78L115.28 18.78L115.28 15.57L128.81 15.57L126.42 16.42Q126.42 14.93 125.97 13.83Q125.52 12.73 124.62 12.12Q123.72 11.52 122.39 11.52L122.39 11.52Q121.07 11.52 120.14 12.13Q119.21 12.75 118.73 13.80Q118.25 14.85 118.25 16.20L118.25 16.20L118.25 18.47Q118.25 20.13 118.81 21.26Q119.36 22.39 120.36 22.95Q121.36 23.51 122.70 23.51L122.70 23.51Q123.60 23.51 124.34 23.26Q125.07 23.00 125.59 22.50Q126.11 21.99 126.39 21.26L126.39 21.26L131.04 22.13Q130.57 23.70 129.43 24.89Q128.28 26.08 126.57 26.73Q124.85 27.38 122.61 27.38ZM149.44 27L138.69 27L138.69 1.54L148.79 1.54Q151.59 1.54 153.46 2.38Q155.33 3.23 156.27 4.70Q157.20 6.17 157.20 8.08L157.20 8.08Q157.20 9.59 156.60 10.70Q156.00 11.82 154.97 12.53Q153.93 13.24 152.62 13.55L152.62 13.55L152.62 13.81Q154.05 13.86 155.33 14.62Q156.60 15.38 157.39 16.74Q158.19 18.10 158.19 19.99L158.19 19.99Q158.19 21.99 157.20 23.58Q156.21 25.17 154.27 26.09Q152.33 27 149.44 27L149.44 27ZM143.90 15.81L143.90 22.71L148.41 22.71Q150.70 22.71 151.76 21.82Q152.82 20.93 152.82 19.50L152.82 19.50Q152.82 18.40 152.30 17.57Q151.78 16.75 150.82 16.28Q149.87 15.81 148.55 15.81L148.55 15.81L143.90 15.81ZM143.90 5.79L143.90 12.23L148.02 12.23Q149.13 12.23 150.02 11.83Q150.91 11.43 151.41 10.69Q151.92 9.94 151.92 8.92L151.92 8.92Q151.92 7.53 150.93 6.66Q149.95 5.79 148.12 5.79L148.12 5.79L143.90 5.79ZM166.03 27.24L166.03 27.24Q164.05 27.24 162.56 26.38Q161.07 25.51 160.26 23.90Q159.45 22.28 159.45 20.04L159.45 20.04L159.45 7.89L164.58 7.89L164.58 19.16Q164.58 20.93 165.50 21.94Q166.42 22.95 168.03 22.95L168.03 22.95Q169.12 22.95 169.96 22.48Q170.80 22.01 171.27 21.11Q171.74 20.22 171.74 18.95L171.74 18.95L171.74 7.89L176.86 7.89L176.86 27L172.03 27L171.96 22.23L172.25 22.23Q171.50 24.64 169.95 25.94Q168.41 27.24 166.03 27.24ZM184.09 27L178.96 27L178.96 7.89L184.09 7.89L184.09 27ZM181.53 5.40L181.53 5.40Q180.37 5.40 179.55 4.63Q178.73 3.86 178.73 2.77L178.73 2.77Q178.73 1.67 179.55 0.90Q180.37 0.13 181.53 0.13L181.53 0.13Q182.69 0.13 183.52 0.90Q184.35 1.66 184.35 2.77L184.35 2.77Q184.35 3.86 183.52 4.63Q182.69 5.40 181.53 5.40ZM186.17 1.54L191.30 1.54L191.30 27L186.17 27L186.17 1.54ZM200.37 27.32L200.37 27.32Q198.17 27.32 196.40 26.19Q194.63 25.05 193.61 22.86Q192.58 20.66 192.58 17.48L192.58 17.48Q192.58 14.22 193.64 12.03Q194.70 9.84 196.46 8.75Q198.22 7.65 200.34 7.65L200.34 7.65Q201.96 7.65 203.04 8.20Q204.12 8.75 204.78 9.55Q205.45 10.35 205.77 11.11L205.77 11.11L205.95 11.11L205.95 1.54L211.07 1.54L211.07 27L206.03 27L206.03 23.94L205.77 23.94Q205.43 24.71 204.76 25.49Q204.08 26.27 203.01 26.79Q201.93 27.32 200.37 27.32ZM201.95 23.21L201.95 23.21Q203.25 23.21 204.17 22.49Q205.09 21.77 205.57 20.48Q206.05 19.19 206.05 17.46L206.05 17.46Q206.05 15.72 205.58 14.45Q205.11 13.17 204.19 12.47Q203.26 11.76 201.95 11.76L201.95 11.76Q200.60 11.76 199.68 12.49Q198.77 13.23 198.31 14.51Q197.85 15.79 197.85 17.46L197.85 17.46Q197.85 19.14 198.32 20.44Q198.79 21.74 199.70 22.47Q200.61 23.21 201.95 23.21ZM221.80 27.38L221.80 27.38Q218.88 27.38 216.76 26.18Q214.64 24.98 213.51 22.78Q212.37 20.57 212.37 17.55L212.37 17.55Q212.37 14.59 213.50 12.37Q214.63 10.15 216.69 8.90Q218.76 7.65 221.55 7.65L221.55 7.65Q223.43 7.65 225.05 8.25Q226.67 8.85 227.90 10.06Q229.13 11.26 229.83 13.07Q230.52 14.88 230.52 17.34L230.52 17.34L230.52 18.78L214.47 18.78L214.47 15.57L228.01 15.57L225.61 16.42Q225.61 14.93 225.16 13.83Q224.71 12.73 223.81 12.12Q222.91 11.52 221.58 11.52L221.58 11.52Q220.26 11.52 219.33 12.13Q218.40 12.75 217.92 13.80Q217.45 14.85 217.45 16.20L217.45 16.20L217.45 18.47Q217.45 20.13 218.00 21.26Q218.56 22.39 219.56 22.95Q220.56 23.51 221.89 23.51L221.89 23.51Q222.79 23.51 223.53 23.26Q224.26 23.00 224.79 22.50Q225.31 21.99 225.58 21.26L225.58 21.26L230.23 22.13Q229.77 23.70 228.62 24.89Q227.48 26.08 225.76 26.73Q224.04 27.38 221.80 27.38ZM236.87 27L231.75 27L231.75 7.89L236.70 7.89L236.70 11.23L236.91 11.23Q237.44 9.45 238.68 8.54Q239.92 7.64 241.52 7.64L241.52 7.64Q241.92 7.64 242.37 7.68Q242.82 7.72 243.18 7.81L243.18 7.81L243.18 12.39Q242.84 12.27 242.19 12.20Q241.54 12.13 240.96 12.13L240.96 12.13Q239.80 12.13 238.86 12.64Q237.92 13.14 237.40 14.04Q236.87 14.93 236.87 16.13L236.87 16.13L236.87 27Z"/></g>
        
      </svg>
    